<?xml version="1.0" encoding="iso-8859-1"?>
<!-- Generator: Adobe Illustrator 19.0.0, SVG Export Plug-In . SVG Version: 6.00 Build 0)  -->
<svg version="1.1" id="Capa_1" xmlns="http://www.w3.org/2000/svg" xmlns:xlink="http://www.w3.org/1999/xlink" x="0px" y="0px"
	 viewBox="0 0 511.496 511.496" style="enable-background:new 0 0 511.496 511.496;" xml:space="preserve">
<g>
	<g>
		<g>
			<path d="M495.791,167.563l-30.032,11.04c42.696,116.111-16.819,244.849-132.93,287.544
				c-116.111,42.696-244.849-16.819-287.544-132.93S62.104,88.369,178.214,45.674c64.469-23.706,136.251-16.523,194.744,19.49
				l16.816-27.2C269.496-36.048,111.992,1.46,37.981,121.739S1.477,399.521,121.756,473.533
				c120.279,74.011,277.783,36.504,351.794-83.775C514.62,323.013,522.816,241.123,495.791,167.563z"/>
			<path d="M453.615,151.355l28.288-14.96c-5.317-10.048-11.293-19.733-17.888-28.992l-26.064,18.576
				C443.731,134.08,448.964,142.557,453.615,151.355z"/>
			<path d="M419.055,102.891l23.36-21.872c-7.775-8.306-16.092-16.089-24.896-23.296l-20.256,24.768
				C404.971,88.8,412.252,95.615,419.055,102.891z"/>
			<path d="M352.863,309.339l27.696-95.04l0.528-2.464c0.155-1.306,0.235-2.62,0.24-3.936c0-17.673-14.327-32-32-32H191.455v32
				h157.664l-27.2,93.52l-0.592,2.48H159.455v32h161.872C336.902,335.9,350.215,324.687,352.863,309.339z"/>
			<rect x="127.455" y="239.899" width="96" height="32"/>
		</g>
	</g>
</g>
<g>
</g>
<g>
</g>
<g>
</g>
<g>
</g>
<g>
</g>
<g>
</g>
<g>
</g>
<g>
</g>
<g>
</g>
<g>
</g>
<g>
</g>
<g>
</g>
<g>
</g>
<g>
</g>
<g>
</g>
</svg>
